<?xml version="1.0" standalone="no"?>
<!DOCTYPE svg PUBLIC "-//W3C//DTD SVG 20010904//EN"
 "http://www.w3.org/TR/2001/REC-SVG-20010904/DTD/svg10.dtd">
<svg version="1.0" xmlns="http://www.w3.org/2000/svg"
 width="200.000000pt" height="200.000000pt" viewBox="0 0 200.000000 200.000000"
 preserveAspectRatio="xMidYMid meet">
<metadata>
Created by potrace 1.11, written by Peter Selinger 2001-2013
</metadata>
<g transform="translate(0.000000,200.000000) scale(0.100000,-0.100000)"
fill="#000000" stroke="none">
<path d="M330 1351 l0 -30 108 -3 107 -3 3 -352 2 -353 30 0 30 0 0 355 0 355
111 0 110 0 -3 28 -3 27 -247 3 -248 2 0 -29z"/>
<path d="M1234 1356 c-5 -20 -14 -24 -55 -29 -132 -16 -238 -126 -257 -266
-30 -218 73 -366 276 -397 36 -6 42 -10 42 -31 0 -23 2 -24 63 -21 55 3 62 5
65 25 3 18 13 24 56 33 104 21 188 85 228 174 18 42 22 69 23 156 0 90 -3 113
-24 158 -43 95 -155 172 -252 172 -20 0 -28 6 -33 25 -6 23 -11 25 -66 25 -54
0 -60 -2 -66 -24z m6 -356 c0 -120 -4 -221 -8 -224 -19 -12 -89 18 -123 53
-81 81 -80 260 1 341 34 34 103 63 123 53 4 -2 7 -103 7 -223z m230 190 c63
-45 95 -166 70 -269 -19 -78 -66 -126 -142 -145 l-28 -6 0 226 0 227 35 -6
c19 -3 49 -15 65 -27z"/>
</g>
</svg>
