<svg width="512" height="512" xmlns="http://www.w3.org/2000/svg" xmlns:svg="http://www.w3.org/2000/svg">
    <g>
        <title>Layer 1</title>
        <g id="svg_1">
            <path id="svg_2" fill="#ff0000" d="m256,0c-88.359,0 -160,71.625 -160,160c0,24.75 5.625,48.219 15.672,69.125c0.562,1.188 144.328,282.875 144.328,282.875l142.594,-279.375c11.125,-21.781 17.406,-46.469 17.406,-72.625c0,-88.375 -71.625,-160 -160,-160zm0,256c-53.016,0 -96,-43 -96,-96s42.984,-96 96,-96c53,0 96,43 96,96s-43,96 -96,96z"/>
        </g>
        <g id="svg_3"/>
        <g id="svg_4"/>
        <g id="svg_5"/>
        <g id="svg_6"/>
        <g id="svg_7"/>
        <g id="svg_8"/>
        <g id="svg_9"/>
        <g id="svg_10"/>
        <g id="svg_11"/>
        <g id="svg_12"/>
        <g id="svg_13"/>
        <g id="svg_14"/>
        <g id="svg_15"/>
        <g id="svg_16"/>
        <g id="svg_17"/>
        <text font-weight="bold" stroke="#000000" transform="rotate(0.8429969549179077 253.8090209960894,157.40879821777241) matrix(6.6802264676519565,0,0,6.822335764937046,-1014.755540260108,-717.6506223952927) " xml:space="preserve" text-anchor="middle" font-family="Sans-serif" font-size="24" id="svg_18" y="136.57297" x="189.906838" stroke-width="0" fill="#000000">Я</text>
    </g>
</svg>